<svg xmlns="http://www.w3.org/2000/svg" viewBox="0 0 400 300">
  <defs>
    <!-- Fire gradient -->
    <radialGradient id="fireGradient" cx="50%" cy="50%" r="50%">
      <stop offset="0%" stop-color="#ff8c00" stop-opacity="1"/>
      <stop offset="50%" stop-color="#ff4500" stop-opacity="0.8"/>
      <stop offset="100%" stop-color="#8b0000" stop-opacity="0"/>
    </radialGradient>
    
    <!-- Ember gradient -->
    <radialGradient id="emberGradient" cx="50%" cy="50%" r="50%">
      <stop offset="0%" stop-color="#ffffff" stop-opacity="1"/>
      <stop offset="100%" stop-color="#ff8c00" stop-opacity="0"/>
    </radialGradient>
    
    <!-- Smoke gradient -->
    <radialGradient id="smokeGradient" cx="50%" cy="50%" r="50%">
      <stop offset="0%" stop-color="#ffffff" stop-opacity="0.8"/>
      <stop offset="100%" stop-color="#a9a9a9" stop-opacity="0"/>
    </radialGradient>
  </defs>
  
  <!-- Ground -->
  <rect x="0" y="250" width="400" height="50" fill="#3d2c1f"/>
  
  <!-- Fire pit -->
  <rect x="150" y="220" width="100" height="30" fill="#654321"/>
  <rect x="145" y="215" width="110" height="5" fill="#8b4513"/>
  
  <!-- Fire base -->
  <ellipse cx="200" cy="220" rx="70" ry="15" fill="#654321"/>
  
  <!-- Main fire -->
  <path d="M180,220 Q200,180 220,220 Q240,190 260,220 Q280,170 300,220" 
         fill="url(#fireGradient)" opacity="0.9"/>
  
  <!-- Fire flicker effect -->
  <path d="M185,220 Q200,175 215,220 Q230,185 245,220 Q260,170 275,220" 
         fill="#ff8c00" opacity="0.7"/>
  
  <!-- Embers -->
  <circle cx="200" cy="190" r="3" fill="url(#emberGradient)" opacity="0.8"/>
  <circle cx="220" cy="185" r="2" fill="url(#emberGradient)" opacity="0.6"/>
  <circle cx="240" cy="195" r="4" fill="url(#emberGradient)" opacity="0.7"/>
  <circle cx="260" cy="180" r="2.5" fill="url(#emberGradient)" opacity="0.5"/>
  <circle cx="280" cy="190" r="3" fill="url(#emberGradient)" opacity="0.6"/>
  
  <!-- Smoke particles -->
  <ellipse cx="200" cy="170" rx="10" ry="5" fill="url(#smokeGradient)" opacity="0.4"/>
  <ellipse cx="220" cy="160" rx="8" ry="4" fill="url(#smokeGradient)" opacity="0.3"/>
  <ellipse cx="240" cy="155" rx="12" ry="6" fill="url(#smokeGradient)" opacity="0.35"/>
  <ellipse cx="260" cy="165" rx="9" ry="4.5" fill="url(#smokeGradient)" opacity="0.25"/>
  <ellipse cx="280" cy="150" rx="7" ry="3.5" fill="url(#smokeGradient)" opacity="0.3"/>
  
  <!-- Wood logs -->
  <rect x="160" y="220" width="10" height="15" fill="#8b4513"/>
  <rect x="175" y="220" width="10" height="15" fill="#8b4513"/>
  <rect x="190" y="220" width="10" height="15" fill="#8b4513"/>
  <rect x="205" y="220" width="10" height="15" fill="#8b4513"/>
  <rect x="220" y="220" width="10" height="15" fill="#8b4513"/>
  <rect x="235" y="220" width="10" height="15" fill="#8b4513"/>
  <rect x="250" y="220" width="10" height="15" fill="#8b4513"/>
  
  <!-- Flame highlights -->
  <circle cx="200" cy="190" r="10" fill="#ff8c00" opacity="0.3"/>
  <circle cx="220" cy="180" r="8" fill="#ff4500" opacity="0.25"/>
  <circle cx="240" cy="190" r="12" fill="#ff8c00" opacity="0.2"/>
</svg>